<?xml version="1.0" encoding="utf-8"?>
<!-- Generator: Adobe Illustrator 16.0.0, SVG Export Plug-In . SVG Version: 6.00 Build 0)  -->
<!DOCTYPE svg PUBLIC "-//W3C//DTD SVG 1.1//EN" "http://www.w3.org/Graphics/SVG/1.1/DTD/svg11.dtd">
<svg version="1.1" id="Layer_1" xmlns="http://www.w3.org/2000/svg" xmlns:xlink="http://www.w3.org/1999/xlink" x="0px" y="0px"
	 width="254px" height="1206px" viewBox="0 0 254 1206" enable-background="new 0 0 254 1206" xml:space="preserve">
<g transform="translate(0.000000,1206.000000) scale(0.100000,-0.100000)">
	<path fill="#4E4E56" d="M1787.002,11792.001c-19.004-4.004-20-33.002-2.002-39.004c5.996-1.996,19.004,3.004,29.004,10
		c13.994,11.002,15,15,3.994,23.004C1810.996,11792.001,1797.002,11794.999,1787.002,11792.001z"/>
	<path fill="#4E4E56" d="M1555,11707.997c-90-33.998-104.004-42.998-89.004-57.998c13.008-12.998,184.004,49,184.004,67.002
		C1650,11739.999,1634.004,11737.997,1555,11707.997z"/>
	<path fill="#4E4E56" d="M1237.002,11589.999c-80-32.998-84.004-37.002-70-51c8.998-9,33.998-1.998,93.998,22.002
		c44.996,18.998,83.004,38.998,83.004,43.998C1345.996,11623.999,1304.004,11618.999,1237.002,11589.999z"/>
	<path fill="#4E4E56" d="M968.998,11449.999c-36-21-71.996-46-78.998-55c-20-25,13.998-30,47.002-7.002
		c15,11.002,46.996,32.002,70.996,46.002c23.002,15,42.002,33.002,42.002,41C1050,11497.001,1042.002,11493.999,968.998,11449.999z"
		/>
	<path fill="#4E4E56" d="M702.002,11252.001c-57.002-53.002-79.004-92.002-51.002-92.002c19,0,141.998,127.002,135,139
		C775,11317.001,767.998,11312.997,702.002,11252.001z"/>
	<path fill="#4E4E56" d="M542.998,11057.997c-19-22.998-72.998-136.996-72.998-152.998c0-37.002,28.998-7.998,65,65
		c27.002,56.002,36,82.998,28.998,90C556,11067.997,550,11067.001,542.998,11057.997z"/>
	<path fill="#4E4E56" d="M427.002,10763.999c-11.002-11.998-8.004-181.998,3.998-189c6.002-3.998,11.998-5,14-3.998
		c1,1.996,3.998,46,6,97.998C455,10757.001,447.998,10783.999,427.002,10763.999z"/>
	<path fill="#4E4E56" d="M887.002,10608.999c-53.004-11.998-99.004-37.998-94.004-51.998c5-15,11-15,77.002,5
		c30,10,67.002,20,82.998,22.998c15,2.998,27.002,12.002,27.002,20C980,10622.001,947.002,10622.997,887.002,10608.999z"/>
	<path fill="#4E4E56" d="M1100,10581.001c0-5,22.002-23.004,50-40c27.002-17.002,57.002-42.002,66-56.002
		c16.002-25,44-33.998,44-13.998c0,6-9,23.998-21.002,40C1206,10557.997,1100,10611.001,1100,10581.001z"/>
	<path fill="#4E4E56" d="M607.002,10422.001c-56.002-56-66.002-75-48.004-87.002c11.002-6,124,109,129,131.002
		C695,10494.999,662.002,10477.997,607.002,10422.001z"/>
	<path fill="#4E4E56" d="M455,10439.999c-7.002-12.002,51-145,71-161c29-24,31.998,3.002,5,53.998
		c-15,28.004-32.002,67.002-38.998,85C481,10449.999,467.002,10458.999,455,10439.999z"/>
	<path fill="#4E4E56" d="M1267.002,10332.997c-3.004-3.998-8.004-23.998-12.002-42.998c-4-18.998-17.998-53.998-31.002-76
		c-22.998-41.002-22.998-54,2.002-54c16.998,0,63.004,96.002,66.002,139C1295,10329.999,1277.998,10352.001,1267.002,10332.997z"/>
	<path fill="#4E4E56" d="M423.998,10153.999c-31.996-69-37.998-104-16-104c7.002,0,82.002,156.002,82.002,172.998
		c0,4.004-7.002,7.002-16.002,7.002C465,10229.999,445,10201.001,423.998,10153.999z"/>
	<path fill="#4E4E56" d="M630,10164.999c0-23.998,141-112.002,160-100c18.998,12.002,10,25-32.002,46.002
		c-24,11.996-56.998,31.996-75,45C647.002,10182.997,630,10186.001,630,10164.999z"/>
	<path fill="#4E4E56" d="M1053.998,10079.999c-11.996-3.998-45-10-75-12.002c-37.998-2.998-53.998-8.998-53.998-18.998
		c0-11.002,13.998-14,55-12.998c67.998,1,130,20,130,40C1110,10091.001,1086,10092.997,1053.998,10079.999z"/>
	<path fill="#4E4E56" d="M336,9907.997c-3.002-12.998-8.998-55.996-13.002-95c-5-60.996-2.998-72.998,9.004-72.998
		c10.996,0,17.998,22.002,26.996,85c16.002,102.002,16.002,99-1.996,102.998C348.998,9929.999,340,9921.001,336,9907.997z"/>
	<path fill="#4E4E56" d="M315,9543.999c10-92.998,17.998-117.999,38.998-121.998c15-3.003,16.002,0.996,10,35
		c-3.998,20.996-10,62.998-12.998,92.998c-5,42.002-10,56.002-23.998,57.998C310,9612.001,308.998,9607.001,315,9543.999z"/>
	<path fill="#4E4E56" d="M1475,9438.998c-4.004-6.001-4.004-12.998-0.996-16.001c6.992-6.997,185-10.996,191.992-3.999
		c2.002,2.002-0.996,10-6.992,18.003C1645,9452.997,1485,9456.001,1475,9438.998z"/>
	<path fill="#4E4E56" d="M1295,9367.997c-49-35-95-80.996-95-95c0-20.996,25-15,51,13.003
		c12.998,13.999,43.004,38.999,66.998,56.001c22.998,15.996,40,32.998,37.002,38.999C1345.996,9394.999,1327.998,9391,1295,9367.997
		z"/>
	<path fill="#4E4E56" d="M1780,9357.001c0-7.002,12.998-26.001,29.004-41.001c15.996-15,36.992-45,45.996-67.002
		c17.998-38.999,45-52.998,45-22.998c0,21.001-35,80-67.998,116.997C1805,9372.001,1780,9378.998,1780,9357.001z"/>
	<path fill="#4E4E56" d="M383.998,9286C375,9262.997,445,9119.999,465,9119.999c21,0,20,7.002-20,92.998
		C407.998,9293.998,392.998,9311,383.998,9286z"/>
	<path fill="#4E4E56" d="M1106,9137.997c-22.002-33.999-57.002-140-52.002-155c8.004-20,24-15,31.002,10
		c3.998,12.002,17.998,51.001,32.002,85c16.996,43.003,21.996,67.002,15,74.004C1125,9158.998,1117.002,9153.998,1106,9137.997z"/>
	<path fill="#4E4E56" d="M1905,9077.997c-5-15-25.996-133.994-27.998-162.998c-1.006-12.002,3.994-20,12.998-20
		c17.998,0,37.998,70,39.004,137.002C1930,9077.001,1915,9106,1905,9077.997z"/>
	<path fill="#4E4E56" d="M540,9002.001c0-9.004,27.002-47.002,58.998-82.002c44-47.998,62.002-62.002,71.002-54.004
		c7.998,8.008-5,29.004-52.002,83.008C552.998,9022.997,540,9032.001,540,9002.001z"/>
	<path fill="#4E4E56" d="M1027.002,8842.997c-4.004-2.998-7.002-47.998-7.002-100c0-73.994,2.998-92.998,13.998-92.998
		c11.002,0,15,20,18.004,87.998C1056,8844.003,1051,8867.001,1027.002,8842.997z"/>
	<path fill="#4E4E56" d="M765,8779.999c-12.002-19.004,150-119.004,166-102.998c11.998,12.002-7.002,27.998-88.002,75.996
		C776,8794.003,773.998,8794.003,765,8779.999z"/>
	<path fill="#4E4E56" d="M1787.998,8764.003c-12.998-14.004-45-42.002-70.996-61.006c-32.998-25-45-38.994-37.998-45.996
		c6.992-7.002,16.992-7.002,32.998,0c33.994,15.996,117.998,92.998,117.998,107.998C1830,8790.995,1810,8790.995,1787.998,8764.003z
		"/>
	<path fill="#4E4E56" d="M1050,8625.995c0-15.996,72.002-42.998,142.998-51.992c37.002-5,47.002-4.004,47.002,6.992
		c0,10-30,22.002-87.002,37.002C1048.998,8644.003,1050,8644.003,1050,8625.995z"/>
	<path fill="#4E4E56" d="M1507.998,8609.999c-25-7.002-95-17.998-125-19.004c-7.002-0.996-12.998-7.998-12.998-15.996
		c0-10.996,10.996-15,42.998-14.004c65,1.006,142.002,22.002,142.002,38.008C1555,8617.001,1542.002,8619.999,1507.998,8609.999z"/>
	<path fill="#4E4E56" d="M1300.996,8455.995c-8.994-10.996,5-23.994,64.004-64.999c80-53.994,95-60,95-36.992
		c0,13.994-37.002,45-107.002,88.993C1319.004,8464.003,1310,8467.001,1300.996,8455.995z"/>
	<path fill="#4E4E56" d="M1555,8260c-7.998-12.002,115-150.996,127.002-144.004c15.996,10,7.002,28.008-47.998,90
		C1577.998,8270,1565.996,8277.998,1555,8260z"/>
	<path fill="#4E4E56" d="M1755,8010.996c-7.002-11.992,75.996-162.998,92.998-168.994c22.998-7.002,12.002,32.002-27.998,105.996
		C1780.996,8017.998,1767.998,8030,1755,8010.996z"/>
	<path fill="#4E4E56" d="M1895.996,7722.002c-8.994-15,37.002-182.002,51.006-182.002c20.996,0,20.996,12.998,2.002,90
		C1930,7704.004,1907.998,7742.002,1895.996,7722.002z"/>
	<path fill="#4E4E56" d="M1955.996,7402.002c-8.994-15,3.008-175,14.004-186.006c15.996-15.996,20.996,15,17.998,104.004
		c-2.002,52.002-7.002,85-15,87.002C1967.002,7409.004,1959.004,7407.002,1955.996,7402.002z"/>
	<path fill="#4E4E56" d="M1925,7005c-20-97.998-20-99.004-2.002-102.998c9.004-2.002,19.004,18.994,30,67.002
		C1974.004,7052.998,1975,7090,1957.002,7090C1947.998,7090,1937.002,7060.996,1925,7005z"/>
	<path fill="#4E4E56" d="M1225,7049.004c-71.002-16.006-125-40-125-56.006c0-10.996,6-13.994,22.998-10
		C1255,7017.002,1285,7027.998,1285,7040C1285,7057.998,1272.998,7060,1225,7049.004z"/>
	<path fill="#4E4E56" d="M1415,7040c-7.002-10.996,9.004-17.998,107.002-47.998C1585,6972.998,1610,6975.996,1595,7000
		c-7.002,10.996-127.998,50-155,50C1429.004,7050,1417.998,7045.996,1415,7040z"/>
	<path fill="#4E4E56" d="M1710,6915.996c0-7.998,5.996-15.996,12.998-18.994c6.006-2.002,37.998-25,69.004-51.006
		c30.996-25,62.002-45.996,67.998-45.996c27.002,0,0.996,37.002-57.998,82.002C1737.998,6930.996,1710,6940.996,1710,6915.996z"/>
	<path fill="#4E4E56" d="M947.002,6877.998C912.002,6830,880,6774.004,880,6760.996c0-5.996,6-10.996,12.998-10.996
		C905,6750,1000,6882.998,1000,6900C1000,6920.996,970,6907.998,947.002,6877.998z"/>
	<path fill="#4E4E56" d="M1855,6770c-20.996-34.004-75-147.002-75-157.002c0-7.002,5.996-12.998,12.998-12.998
		c16.006,0,87.002,132.002,87.002,160.996C1880,6780.996,1865,6787.002,1855,6770z"/>
	<path fill="#4E4E56" d="M1950,6699.004c0-15,92.002-159.004,100.996-159.004c23.008,0,16.006,29.004-25.996,95
		C1984.004,6702.002,1950,6730,1950,6699.004z"/>
	<path fill="#4E4E56" d="M840,6590.996c0-45,18.998-125.996,35-146.992c20-27.002,42.002-5,25,25.996
		c-6.002,10.996-14,49.004-17.998,82.998c-5,47.998-11.002,62.998-24.004,65C843.998,6620.996,840,6615,840,6590.996z"/>
	<path fill="#4E4E56" d="M1630,6435c-50-50.996-62.002-67.002-52.002-77.002c9.004-8.994,20-3.994,49.004,22.998
		c62.002,58.008,92.002,93.008,92.998,107.002C1720,6514.004,1692.002,6497.002,1630,6435z"/>
	<path fill="#4E4E56" d="M2107.002,6422.998c-2.998-3.994,3.994-37.002,15-72.998c27.998-90.996,35.996-110,47.998-110
		c15.996,0,10,49.004-12.998,119.004C2135.996,6419.004,2119.004,6442.002,2107.002,6422.998z"/>
	<path fill="#4E4E56" d="M975,6330.996c-7.998-13.994,40-47.998,101-70.996c30-10.996,59-20,64-20c20,0,8.998,32.002-12.002,37.998
		c-11.998,2.998-46.998,17.998-76.998,34.004C988.998,6342.998,983.998,6344.004,975,6330.996z"/>
	<path fill="#4E4E56" d="M1400,6285.996c-20-7.998-55-16.992-77.998-20.996c-49.004-7.998-59.004-35-12.998-35
		c47.998,0,160.996,39.004,160.996,55C1470,6302.998,1447.002,6302.998,1400,6285.996z"/>
	<path fill="#4E4E56" d="M2177.002,6112.998c-7.002-12.002-1.006-182.002,7.002-190c2.998-3.994,10.996-2.002,16.992,4.004
		c14.004,13.994,7.002,185-7.998,190C2187.002,6119.004,2180,6117.002,2177.002,6112.998z"/>
	<path fill="#4E4E56" d="M2155,5787.002c-25-71.006-50.996-167.002-47.002-172.002c20-20,36.006,10,76.006,150.996
		C2190.996,5790,2162.998,5810,2155,5787.002z"/>
	<path fill="#4E4E56" d="M1210,5505.996c0-8.994,17.002-15.996,47.002-20.996c25.996-4.004,65-14.004,85.996-22.002
		c29.004-12.002,41.006-12.998,50-3.994c15,15,0,25.996-67.002,45.996C1262.998,5524.004,1210,5525,1210,5505.996z"/>
	<path fill="#4E4E56" d="M2040,5487.998c-32.002-37.998-97.998-142.998-94.004-150c13.008-20,33.008-2.998,77.002,62.998
		c26.006,39.004,47.002,75,47.002,79.004C2070,5495.996,2050.996,5500.996,2040,5487.998z"/>
	<path fill="#4E4E56" d="M1022.998,5460.996c-45-32.998-82.998-80.996-82.998-105c0-25.996,16-17.998,50,23.008
		c17.002,21.992,47.002,50,66,61.992c32.998,20,40,39.004,17.998,46.006C1067.998,5489.004,1045,5477.002,1022.998,5460.996z"/>
	<path fill="#4E4E56" d="M1495,5380c-2.998-5,10-30,30-55.996c20-26.006,42.998-60,50.996-75
		c8.008-16.006,18.008-29.004,23.008-29.004c28.994,0,15,40-41.006,117.998C1520,5390,1507.002,5399.004,1495,5380z"/>
	<path fill="#4E4E56" d="M1780,5184.004c-62.998-53.008-77.002-73.008-55-81.006c15-5,145,106.006,145,122.998
		C1870,5250.996,1845.996,5240,1780,5184.004z"/>
	<path fill="#4E4E56" d="M910,5195.996c0-56.992,71-168.994,92.998-146.992c8.002,7.998,4.004,20-12.998,42.998
		c-12.998,17.002-31.002,52.002-41.002,77.002C930,5220.996,910,5234.004,910,5195.996z"/>
	<path fill="#4E4E56" d="M1630,5005c0-74.004,2.998-95,14.004-95c15.996,0,25.996,30,25.996,85.996
		c0,61.006-10.996,104.004-25.996,104.004C1632.998,5100,1630,5079.004,1630,5005z"/>
	<path fill="#4E4E56" d="M1502.998,5017.002C1435.996,4989.004,1407.002,4960,1445,4960c27.998,0,165,64.004,165,77.002
		C1610,5057.002,1582.002,5052.002,1502.998,5017.002z"/>
	<path fill="#4E4E56" d="M1115,4980.996c-11.002-18.994,2.998-28.994,56-40c71.002-15.996,129-13.994,129,3.008
		c0,8.994-22.998,16.992-72.998,23.994c-41.002,6.006-81.002,14.004-89.004,17.002
		C1128.998,4989.004,1118.998,4987.002,1115,4980.996z"/>
	<path fill="#4E4E56" d="M1574.004,4745.996c-18.008-13.994-18.008-15-1.006-20.996c22.998-9.004,47.002,0.996,47.002,20
		S1600,4764.004,1574.004,4745.996z"/>
	<path fill="#4E4E56" d="M1340.996,4657.002c-70.996-31.006-89.996-49.004-58.994-55c20-4.004,167.998,63.994,167.998,77.002
		C1450,4697.002,1417.998,4690.996,1340.996,4657.002z"/>
	<path fill="#4E4E56" d="M1050,4540c-61.002-27.002-92.002-52.002-79-65c10-9.004,180,67.002,176.002,79.004
		C1141,4572.998,1117.002,4570,1050,4540z"/>
	<path fill="#4E4E56" d="M766,4379.004c-75-50-86-62.002-66-74.004c11-7.002,160,90.996,160,105
		C860,4434.004,836,4425.996,766,4379.004z"/>
	<path fill="#4E4E56" d="M511,4174.004c-57.002-62.002-67.002-84.004-38.002-84.004C491,4090,602.002,4217.998,595,4230
		C583.998,4247.998,572.002,4240.996,511,4174.004z"/>
	<path fill="#4E4E56" d="M361,3975.996c-18.002-21.992-70-148.994-65-157.998c7.998-12.002,34-10,34,2.998
		c0,6.006,16,42.002,35,81.006c32.002,65.996,36,87.998,16,87.998C376,3990,367.002,3984.004,361,3975.996z"/>
	<path fill="#4E4E56" d="M261,3670.996c-12.002-20.996-15-138.994-5-165c2.998-8.994,11.998-15.996,20-15.996
		c11.002,0,14,20,14,94.004C290,3679.004,280,3707.998,261,3670.996z"/>
	<path fill="#4E4E56" d="M745,3545c-91.002-22.998-124-42.002-110-64.004c2.998-5.996,21-2.998,42.998,6.006
		c20,8.994,60,20.996,87.002,27.998c28.998,7.002,50,17.002,50,25C815,3559.004,802.002,3560,745,3545z"/>
	<path fill="#4E4E56" d="M946,3532.998c-13.002-12.998-5-22.998,31.998-42.002c20-10,50-32.998,66-50
		c31.002-31.992,56.002-40,56.002-17.998C1100,3452.998,963.998,3550,946,3532.998z"/>
	<path fill="#4E4E56" d="M446,3344.004C386,3275,380,3260,407.998,3260C425,3260,530,3379.004,530,3399.004
		C530,3425.996,497.002,3405,446,3344.004z"/>
	<path fill="#4E4E56" d="M296,3360.996C287.002,3347.002,370,3190,386,3190c21.002,0,16.998,25-10,69.004
		c-13.998,20.996-32.002,55-40,75C321,3369.004,307.002,3379.004,296,3360.996z"/>
	<path fill="#4E4E56" d="M1115,3277.998c-2.002-7.002-14-40-25-72.998c-32.002-90.996-35-107.998-19-102.998
		c21.002,5.996,69,107.002,69,143.994C1140,3280,1122.998,3300.996,1115,3277.998z"/>
	<path fill="#4E4E56" d="M301,3132.998c-5-10-21-47.002-35-82.002C242.002,2990,240,2970,260,2970c10,0,80,145,80,165.996
		C340,3155.996,312.002,3152.998,301,3132.998z"/>
	<path fill="#4E4E56" d="M485,3100c-4-5.996,1-20,11-30.996c21.998-24.004,132.998-80,145-73.008c16.998,10,9,24.004-18.002,36.006
		c-15.996,7.002-45.996,23.994-67.998,37.998C493.998,3110,492.002,3110.996,485,3100z"/>
	<path fill="#4E4E56" d="M885,3014.004c-27.002-7.002-62.002-14.004-77.002-14.004c-19,0-27.998-5-27.998-15.996
		c0-14.004,8.998-16.006,62.998-12.002c65,5.996,132.002,32.002,122.002,47.998C957.002,3032.002,947.002,3032.002,885,3014.004z"/>
	<path fill="#4E4E56" d="M206,2840.996c-11-16.992-28.002-160-22.002-176.992c11.002-28.008,36.002,2.998,36.002,45
		c1,20,3.998,53.994,8.998,75.996c4,22.002,6.002,45.996,3.004,52.998C227.998,2852.002,213.998,2854.004,206,2840.996z"/>
	<path fill="#4E4E56" d="M186,2522.002c-8.002-12.998,20-172.002,32.998-185c19-19.004,22.002,15.996,8.004,102.998
		C215,2517.002,201,2545.996,186,2522.002z"/>
	<path fill="#4E4E56" d="M1372.998,2402.998c-12.998-2.002-22.998-10-22.998-17.998c0-10,22.002-12.998,95-12.002
		c65,1.006,95,5,95,12.998c0,7.002-7.002,15-15.996,18.008C1507.002,2410.996,1409.004,2410,1372.998,2402.998z"/>
	<path fill="#4E4E56" d="M1151,2300c-48.002-37.998-71-67.002-71-89.004c0-17.998,28.998-11.992,38.998,8.008
		c6.002,10,33.004,35.996,61.002,55.996c47.998,35.996,65,65,36,65C1207.998,2340,1178.998,2322.002,1151,2300z"/>
	<path fill="#4E4E56" d="M1655.996,2330.996c-2.998-3.994,12.002-26.992,33.008-50c21.992-22.998,45-55,50.996-71.992
		c12.002-28.008,32.998-38.008,44.004-20c10.996,16.992-91.006,150.996-115,150.996C1665,2340,1659.004,2335.996,1655.996,2330.996z
		"/>
	<path fill="#4E4E56" d="M265,2210c-9-15,60-159.004,80-165.996c28.998-11.006,26,2.998-15,83.994
		C287.998,2212.998,276,2227.002,265,2210z"/>
	<path fill="#4E4E56" d="M986,2072.002c-8.002-15-22.002-52.998-31-85c-16.002-55-14-82.002,6-75
		c11.998,3.994,69,170,61.998,180.996C1013.998,2107.002,1000,2100,986,2072.002z"/>
	<path fill="#4E4E56" d="M1795.996,2052.002c-8.994-14.004-27.998-182.998-21.992-189.004c20-20,45,59.004,45.996,139.004
		C1820,2045.996,1807.998,2070.996,1795.996,2052.002z"/>
	<path fill="#4E4E56" d="M430,1925.996c0-20,107.998-135.996,127.002-135.996c25,0,10,25.996-50,89.004
		C447.998,1940.996,430,1952.002,430,1925.996z"/>
	<path fill="#4E4E56" d="M923.998,1777.002c-10-27.998,1.002-180,14-185c9.004-2.998,12.002,20,12.002,92.002
		C950,1770,937.998,1812.998,923.998,1777.002z"/>
	<path fill="#4E4E56" d="M1642.998,1690.996C1580,1632.998,1567.002,1610,1594.004,1610c20,0,135.996,107.998,135.996,125.996
		C1730,1762.002,1705,1749.004,1642.998,1690.996z"/>
	<path fill="#4E4E56" d="M665,1710c-2.998-5,22.002-27.998,57.002-50c61.996-40.996,103.998-57.002,115-45.996
		C843.998,1620.996,821,1650,807.998,1650c-5,0-34,15.996-64,35C686,1722.002,675,1725.996,665,1710z"/>
	<path fill="#4E4E56" d="M956,1570.996c-3.998-5,2.998-15,14-20.996c32.002-17.002,157.002-37.998,171-29.004
		c21.998,13.008,0,25-71,37.002c-36.002,7.002-75,15-86.002,17.998C972.002,1579.004,958.998,1577.002,956,1570.996z"/>
	<path fill="#4E4E56" d="M1347.002,1555c-75-14.004-86.002-20-69.004-37.002c20-20,201.006,20,187.002,42.002
		C1457.998,1572.002,1435.996,1570.996,1347.002,1555z"/>
	<path fill="#4E4E56" d="M943.998,1457.002C931,1420.996,981,1257.002,1000,1275.996c7.002,7.002,3.998,38.008-9,94.004
		C970,1457.998,955,1485,943.998,1457.002z"/>
	<path fill="#4E4E56" d="M1035,1150c-9-14.004,75-170,91-170c21.998,0,16.998,19.004-27.002,102.998
		C1060,1157.998,1047.998,1170.996,1035,1150z"/>
	<path fill="#4E4E56" d="M1200,864.004c0-13.008,85.996-116.006,115-136.005c10-7.002,25-0.996,25,10
		c0,4.004-19.004,27.001-40.996,52.001c-22.002,25-47.002,55-56.006,67.998C1225,882.998,1200,887.002,1200,864.004z"/>
	<path fill="#4E4E56" d="M1425,640c-7.002-12.002,124.004-109.004,147.998-110c9.004,0,17.002,7.002,17.002,15s-4.004,15-7.998,15
		c-4.004,0-36.006,20-70,45C1447.998,650.997,1435,657.002,1425,640z"/>
	<path fill="#4E4E56" d="M1700,470.997c0-13.994,20.996-25.996,94.004-55c37.998-15,75.996-23.994,83.994-20.996
		c24.004,9.004,2.002,25-80,55.996C1720.996,480.997,1700,485.997,1700,470.997z"/>
	<path fill="#4E4E56" d="M2010,370.997c0-16.992,37.998-28.994,119.004-36.992c60-6.006,70.996-4.004,70.996,8.994
		c0,17.002-20.996,22.998-122.002,32.998C2030,380,2010,379.004,2010,370.997z"/>
</g>
</svg>
